<svg xmlns="http://www.w3.org/2000/svg" width="32" height="32" viewBox="0 0 32 32">
  <path fill="#FFF" d="M28.5 26V9.5a1 1 0 0 0-1-1h-23a1 1 0 0 0-1 1V26h25z"/>
  <g fill="#455A64">
    <path d="M3.5 26a.5.5 0 0 1-.5-.5v-16C3 8.673 3.673 8 4.5 8h5.001a.5.5 0 0 1 0 1H4.5c-.275 0-.5.225-.5.5v16a.5.5 0 0 1-.5.5zM28.5 26a.5.5 0 0 1-.5-.5v-16c0-.275-.225-.5-.5-.5h-5a.5.5 0 0 1 0-1h5c.827 0 1.5.673 1.5 1.5v16a.5.5 0 0 1-.5.5z"/>
  </g>
  <path fill="#A9E4FF" d="M5 10h22v16H5z"/>
  <g>
    <path fill="#78909C" d="M12.5 27.5h-11a2 2 0 0 0 2 2h25a2 2 0 0 0 2-2h-18z"/>
    <path fill="#455A64" d="M28.5 30h-25A2.502 2.502 0 0 1 1 27.5a.5.5 0 0 1 .5-.5h11a.5.5 0 0 1 0 1H2.086c.206.582.762 1 1.414 1h25c.652 0 1.208-.418 1.414-1H19.5a.5.5 0 0 1 0-1h11a.5.5 0 0 1 .5.5c0 1.379-1.121 2.5-2.5 2.5z"/>
  </g>
  <g>
    <path fill="#1DE9B6" d="M16.002 1.5l-4.5 7h2v11h5v-11h2z"/>
    <path fill="#455A64" d="M13.502 20a.5.5 0 0 1-.5-.5V9h-1.5a.5.5 0 1 1-.42-.771l4.5-7c.186-.285.656-.285.842 0l4.5 7a.501.501 0 0 1-.422.771h-1.5v8.5a.5.5 0 0 1-1 0v-9a.5.5 0 0 1 .5-.5h1.084l-3.584-5.575L12.418 8h1.084a.5.5 0 0 1 .5.5v11a.5.5 0 0 1-.5.5z"/>
    <circle cx="18.5" cy="19.5" r=".5" fill="#455A64"/>
  </g>
</svg>
